<?xml version="1.0" encoding="utf-8"?>
<svg version="1.1" id="Layer_1" xmlns="http://www.w3.org/2000/svg" xmlns:xlink="http://www.w3.org/1999/xlink" x="0px" y="0px"
	 viewBox="131 -131 512 512" style="enable-background:new 131 -131 512 512;" xml:space="preserve">
<g id="XMLID_2_">
	<path id="XMLID_7_" d="M387-131c-141.8,0-256,114.2-256,256s114.2,256,256,256s256-114.2,256-256S528.8-131,387-131z M387-83.7
		C502.8-83.7,595.7,10,595.7,125c0,115.8-93.7,208.7-208.7,208.7c-115.8,0-208.7-93.7-208.7-208.7C178.3,9.2,271.2-83.7,387-83.7z
		 M359.4-42l-7.9,167l128.4,129.2l22.8-18.9L398,110l-7.1-152H359.4z"/>
</g>
</svg>
