<?xml version="1.0" encoding="UTF-8" standalone="no"?>
<!-- Created with Inkscape (http://www.inkscape.org/) -->

<svg
   xmlns:dc="http://purl.org/dc/elements/1.1/"
   xmlns:cc="http://creativecommons.org/ns#"
   xmlns:rdf="http://www.w3.org/1999/02/22-rdf-syntax-ns#"
   xmlns:svg="http://www.w3.org/2000/svg"
   xmlns="http://www.w3.org/2000/svg"
   xmlns:sodipodi="http://sodipodi.sourceforge.net/DTD/sodipodi-0.dtd"
   xmlns:inkscape="http://www.inkscape.org/namespaces/inkscape"
   width="210.48131mm"
   height="210.48531mm"
   viewBox="0 0 210.48131 210.48531"
   version="1.1"
   id="svg8"
   inkscape:version="0.92.5 (2060ec1f9f, 2020-04-08)"
   sodipodi:docname="eoption.svg">
  <defs
     id="defs2" />
  <sodipodi:namedview
     id="base"
     pagecolor="#ffffff"
     bordercolor="#666666"
     borderopacity="1.0"
     inkscape:pageopacity="0.0"
     inkscape:pageshadow="2"
     inkscape:zoom="0.91757856"
     inkscape:cx="393.44885"
     inkscape:cy="384.51134"
     inkscape:document-units="mm"
     inkscape:current-layer="layer1"
     showgrid="false" />
  <metadata
     id="metadata5">
    <rdf:RDF>
      <cc:Work
         rdf:about="">
        <dc:format>image/svg+xml</dc:format>
        <dc:type
           rdf:resource="http://purl.org/dc/dcmitype/StillImage" />
        <dc:title />
      </cc:Work>
    </rdf:RDF>
  </metadata>
  <g
     inkscape:label="Layer 1"
     inkscape:groupmode="layer"
     id="layer1"
     transform="translate(-0.89999151,-39.749981)">
    <g
       transform="matrix(1.7412019,0,0,1.7412018,-265.66715,-428.63953)"
       inkscape:label="Layer 1"
       id="layer1-4"
       style="fill:#333333;stroke-width:0.15195443">
      <g
         transform="matrix(39.803,0,0,39.803,63.558,116.51)"
         style="fill:#333333;fill-rule:evenodd;stroke-width:0.15195443"
         id="Capa_x0020_1">
        <path
           transform="matrix(0.025123,0,0,0.025123,2.248,3.8298)"
           d="m 74.031,0.0625 -7.625,13.376 c -1.948,-0.254 -3.952,-0.376 -5.968,-0.376 -2.281,0 -4.528,0.147 -6.719,0.469 L 45.25,0.4695 C 40.93,1.5987 36.796,3.2071 32.906,5.2193 l 2.656,15.187 c -3.574,2.316 -6.813,5.12 -9.624,8.313 l -14.813,-4.5 c -2.5493,3.609 -4.7344,7.491 -6.4688,11.625 l 11.688,9.906 c -1.241,4.003 -1.94,8.239 -2.063,12.625 l -14.218,6.187 c 0.35094,4.527 1.1952,8.929 2.4682,13.126 l 15.25,-0.032 c 1.644,3.984 3.823,7.697 6.438,11.032 l -6.938,13.972 c 3.091,3.17 6.508,6 10.219,8.43 l 11.688,-9.9 c 3.713,1.95 7.719,3.4 11.937,4.28 l 3.563,15.19 c 1.898,0.18 3.804,0.28 5.75,0.28 2.519,0 4.999,-0.17 7.437,-0.47 l 2.656,-15.19 c 4.199,-0.94 8.162,-2.45 11.844,-4.47 l 12.406,9.35 c 3.641,-2.54 6.999,-5.46 9.999,-8.72 l -7.655,-13.378 c 2.559,-3.376 4.705,-7.111 6.285,-11.124 l 15.43,-0.876 c 1.16,-4.227 1.87,-8.646 2.1,-13.187 l -14.35,-5.281 c -0.19,-4.379 -1,-8.579 -2.31,-12.563 l 11.28,-10.719 c -1.84,-4.079 -4.13,-7.929 -6.78,-11.468 l -14.342,5.281 c -2.863,-3.143 -6.136,-5.869 -9.75,-8.125 l 1.812,-15.531 C 82.5594,2.5691 78.3864,1.0707 74.0314,0.0628 Z M 60.5,52.6885 c 4.313,0 7.812,3.499 7.812,7.812 0,4.313 -3.499,7.812 -7.812,7.812 -4.313,0 -7.812,-3.499 -7.812,-7.812 0,-4.313 3.499,-7.812 7.812,-7.812 z"
           style="fill:#333333;stroke:#dededd;stroke-width:0.0087158"
           id="path83"
           inkscape:connector-curvature="0" />
      </g>
    </g>
    <circle
       style="fill:#ffffff;fill-opacity:1;fill-rule:evenodd;stroke:none;stroke-width:0.26458332px;stroke-linecap:butt;stroke-linejoin:miter;stroke-opacity:1"
       id="path1265"
       cx="106.14065"
       cy="144.99263"
       r="54.353882" />
  </g>
</svg>
