<?xml version="1.0" encoding="UTF-8" standalone="no"?>
<!-- Created with Inkscape (http://www.inkscape.org/) -->

<svg
   xmlns:dc="http://purl.org/dc/elements/1.1/"
   xmlns:cc="http://creativecommons.org/ns#"
   xmlns:rdf="http://www.w3.org/1999/02/22-rdf-syntax-ns#"
   xmlns:svg="http://www.w3.org/2000/svg"
   xmlns="http://www.w3.org/2000/svg"
   xmlns:sodipodi="http://sodipodi.sourceforge.net/DTD/sodipodi-0.dtd"
   xmlns:inkscape="http://www.inkscape.org/namespaces/inkscape"
   width="8.9477596mm"
   height="12.892949mm"
   viewBox="0 0 8.9477596 12.892949"
   version="1.1"
   id="svg320"
   inkscape:version="0.92.3 (2405546, 2018-03-11)"
   sodipodi:docname="ethereum-green.svg">
  <defs
     id="defs314" />
  <sodipodi:namedview
     id="base"
     pagecolor="#ffffff"
     bordercolor="#666666"
     borderopacity="1.0"
     inkscape:pageopacity="0.0"
     inkscape:pageshadow="2"
     inkscape:zoom="19.598083"
     inkscape:cx="14.230319"
     inkscape:cy="21.379641"
     inkscape:document-units="mm"
     inkscape:current-layer="layer1"
     showgrid="false" />
  <metadata
     id="metadata317">
    <rdf:RDF>
      <cc:Work
         rdf:about="">
        <dc:format>image/svg+xml</dc:format>
        <dc:type
           rdf:resource="http://purl.org/dc/dcmitype/StillImage" />
        <dc:title />
      </cc:Work>
    </rdf:RDF>
  </metadata>
  <g
     inkscape:label="Layer 1"
     inkscape:groupmode="layer"
     id="layer1"
     transform="translate(-107.73228,-124.36356)">
    <g
       id="g352"
       transform="matrix(1,0,0,0.89085821,0,13.573261)"
       style="stroke-width:1.05948722"
       inkscape:export-xdpi="90"
       inkscape:export-ydpi="90">
      <polygon
         transform="matrix(0.03495231,0,0,0.03471402,107.73228,124.36356)"
         id="polygon1600"
         points="255.9231,212.32 127.9611,0 125.1661,9.5 125.1661,285.168 127.9611,287.958 "
         style="display:inline;fill:#447821;fill-opacity:1;stroke-width:8.04762459" />
      <polygon
         transform="matrix(0.03495231,0,0,0.03471402,107.73228,124.36356)"
         id="polygon1602"
         points="0,212.32 127.962,287.959 127.962,154.158 127.962,0 "
         style="display:inline;fill:#7fff2a;stroke-width:8.04762459" />
      <polygon
         transform="matrix(0.03495231,0,0,0.03471402,107.73228,124.36356)"
         id="polygon1604"
         points="255.9991,236.5866 127.9611,312.1866 126.3861,314.1066 126.3861,412.3056 127.9611,416.9066 "
         style="display:inline;fill:#447821;fill-opacity:1;stroke-width:8.04762459" />
      <polygon
         transform="matrix(0.03495231,0,0,0.03471402,107.73228,124.36356)"
         id="polygon1606"
         points="0,236.5852 127.962,416.9052 127.962,312.1852 "
         style="display:inline;fill:#7fff2a;stroke-width:8.04762459" />
      <polygon
         transform="matrix(0.03495231,0,0,0.03471402,107.73228,124.36356)"
         id="polygon1608"
         points="127.9611,154.1587 127.9611,287.9577 255.9211,212.3207 "
         style="display:inline;fill:#225500;stroke-width:8.04762459" />
      <polygon
         transform="matrix(0.03495231,0,0,0.03471402,107.73228,124.36356)"
         id="polygon1610"
         points="127.9609,154.1588 0.0009,212.3208 127.9609,287.9578 "
         style="display:inline;fill:#447821;fill-opacity:1;stroke-width:8.04762459" />
    </g>
  </g>
</svg>
